# xmcd
#
# Track frame offsets:
# 150
# 11391
# 31065
# 44337
# 65101
# 75861
# 89663
# 106415
# 120468
# 133355
#
# Disc length: 2012 seconds
#
#
# Revision: 0
# Processed by: cddbd v1.5.2PL0 Copyright (c) Steve Scherf et al.
# Submitted via: FreeRIP 2.951 
#
DISCID=7c07da0a
DTITLE=Melody Boys Quartet - Get Happy
DYEAR=2000
DGENRE=Gospel
TTITLE0=Jesus Goes With Me
TTITLE1=It'll Happen Again
TTITLE2=Don't You Want ToGo To Heaven
TTITLE3=The Robe Of Calvary
TTITLE4=All God's Children Gonna Rise And Shine
TTITLE5=Get Happy
TTITLE6=The Value Of His Blood
TTITLE7=Will The Lord Be With Me
TTITLE8=Check It Out
TTITLE9=Do You Know My Jesus
EXTD=
EXTT0=
EXTT1=
EXTT2=
EXTT3=
EXTT4=
EXTT5=
EXTT6=
EXTT7=
EXTT8=
EXTT9=
PLAYORDER=
